<?xml version="1.0" encoding="UTF-8" standalone="no"?>
<!DOCTYPE svg PUBLIC "-//W3C//DTD SVG 1.1//EN"
 "http://www.w3.org/Graphics/SVG/1.1/DTD/svg11.dtd">
<!-- Generated by graphviz version 2.43.0 (0)
 -->
<!-- Title: %3 Pages: 1 -->
<svg width="329pt" height="576pt"
 viewBox="0.00 0.00 329.50 576.00" xmlns="http://www.w3.org/2000/svg" xmlns:xlink="http://www.w3.org/1999/xlink">
<g id="graph0" class="graph" transform="scale(0.83 0.83) rotate(0) translate(4 690)">
<title>%3</title>
<polygon fill="white" stroke="transparent" points="-4,4 -4,-690 393,-690 393,4 -4,4"/>
<!-- start -->
<g id="node1" class="node">
<title>start</title>
<ellipse fill="none" stroke="black" cx="203" cy="-668" rx="114.28" ry="18"/>
<text text-anchor="middle" x="203" y="-664.3" font-family="Times,serif" font-size="14.00">Start / CLI&#45;Argumente</text>
</g>
<!-- substack -->
<g id="node2" class="node">
<title>substack</title>
<polygon fill="none" stroke="black" points="295,-613 111,-613 111,-575 295,-575 295,-613"/>
<text text-anchor="middle" x="203" y="-597.8" font-family="Times,serif" font-size="14.00">Substack&#45;Archive holen</text>
<text text-anchor="middle" x="203" y="-582.8" font-family="Times,serif" font-size="14.00">(fetch_substack_posts)</text>
</g>
<!-- start&#45;&gt;substack -->
<g id="edge1" class="edge">
<title>start&#45;&gt;substack</title>
<path fill="none" stroke="black" d="M203,-649.94C203,-641.99 203,-632.31 203,-623.31"/>
<polygon fill="black" stroke="black" points="206.5,-623.2 203,-613.2 199.5,-623.2 206.5,-623.2"/>
</g>
<!-- progress -->
<g id="node3" class="node">
<title>progress</title>
<polygon fill="none" stroke="black" points="271.5,-538 134.5,-538 134.5,-500 271.5,-500 271.5,-538"/>
<text text-anchor="middle" x="203" y="-522.8" font-family="Times,serif" font-size="14.00">Fortschritt laden</text>
<text text-anchor="middle" x="203" y="-507.8" font-family="Times,serif" font-size="14.00">(progress.json)</text>
</g>
<!-- substack&#45;&gt;progress -->
<g id="edge2" class="edge">
<title>substack&#45;&gt;progress</title>
<path fill="none" stroke="black" d="M203,-574.96C203,-566.88 203,-557.18 203,-548.18"/>
<polygon fill="black" stroke="black" points="206.5,-548.09 203,-538.09 199.5,-548.09 206.5,-548.09"/>
</g>
<!-- loop -->
<g id="node4" class="node">
<title>loop</title>
<polygon fill="none" stroke="black" points="203,-463 17,-425 203,-387 389,-425 203,-463"/>
<text text-anchor="middle" x="203" y="-428.8" font-family="Times,serif" font-size="14.00">Für jeden Post</text>
<text text-anchor="middle" x="203" y="-413.8" font-family="Times,serif" font-size="14.00">(noch nicht verarbeitet)</text>
</g>
<!-- progress&#45;&gt;loop -->
<g id="edge3" class="edge">
<title>progress&#45;&gt;loop</title>
<path fill="none" stroke="black" d="M203,-499.82C203,-492.13 203,-482.78 203,-473.35"/>
<polygon fill="black" stroke="black" points="206.5,-473.16 203,-463.16 199.5,-473.16 206.5,-473.16"/>
</g>
<!-- fetch -->
<g id="node5" class="node">
<title>fetch</title>
<polygon fill="none" stroke="black" points="151,-336 11,-336 11,-298 151,-298 151,-336"/>
<text text-anchor="middle" x="81" y="-320.8" font-family="Times,serif" font-size="14.00">HTML laden</text>
<text text-anchor="middle" x="81" y="-305.8" font-family="Times,serif" font-size="14.00">(fetch_post_html)</text>
</g>
<!-- loop&#45;&gt;fetch -->
<g id="edge4" class="edge">
<title>loop&#45;&gt;fetch</title>
<path fill="none" stroke="black" d="M168.37,-393.91C149.79,-377.77 127.19,-358.13 109.62,-342.87"/>
<polygon fill="black" stroke="black" points="111.78,-340.11 101.94,-336.19 107.19,-345.39 111.78,-340.11"/>
<text text-anchor="middle" x="145.5" y="-357.8" font-family="Times,serif" font-size="14.00">ja</text>
</g>
<!-- end -->
<g id="node10" class="node">
<title>end</title>
<ellipse fill="none" stroke="black" cx="203" cy="-317" rx="34.39" ry="18"/>
<text text-anchor="middle" x="203" y="-313.3" font-family="Times,serif" font-size="14.00">Ende</text>
</g>
<!-- loop&#45;&gt;end -->
<g id="edge5" class="edge">
<title>loop&#45;&gt;end</title>
<path fill="none" stroke="black" d="M203,-386.93C203,-373.26 203,-358.03 203,-345.37"/>
<polygon fill="black" stroke="black" points="206.5,-345.02 203,-335.02 199.5,-345.02 206.5,-345.02"/>
<text text-anchor="middle" x="218.5" y="-357.8" font-family="Times,serif" font-size="14.00">nein</text>
</g>
<!-- parse -->
<g id="node6" class="node">
<title>parse</title>
<polygon fill="none" stroke="black" points="226,-261 0,-261 0,-225 226,-225 226,-261"/>
<text text-anchor="middle" x="113" y="-239.3" font-family="Times,serif" font-size="14.00">Titel + Video&#45;IDs extrahieren</text>
</g>
<!-- fetch&#45;&gt;parse -->
<g id="edge6" class="edge">
<title>fetch&#45;&gt;parse</title>
<path fill="none" stroke="black" d="M89.07,-297.83C92.72,-289.63 97.1,-279.78 101.11,-270.76"/>
<polygon fill="black" stroke="black" points="104.4,-271.98 105.26,-261.42 98,-269.13 104.4,-271.98"/>
</g>
<!-- playlist -->
<g id="node7" class="node">
<title>playlist</title>
<polygon fill="none" stroke="black" points="189.5,-188 58.5,-188 58.5,-150 189.5,-150 189.5,-188"/>
<text text-anchor="middle" x="124" y="-172.8" font-family="Times,serif" font-size="14.00">Playlist anlegen</text>
<text text-anchor="middle" x="124" y="-157.8" font-family="Times,serif" font-size="14.00">(YouTube API)</text>
</g>
<!-- parse&#45;&gt;playlist -->
<g id="edge7" class="edge">
<title>parse&#45;&gt;playlist</title>
<path fill="none" stroke="black" d="M115.61,-224.94C116.82,-216.99 118.3,-207.31 119.67,-198.31"/>
<polygon fill="black" stroke="black" points="123.17,-198.61 121.22,-188.2 116.25,-197.56 123.17,-198.61"/>
</g>
<!-- insert -->
<g id="node8" class="node">
<title>insert</title>
<polygon fill="none" stroke="black" points="230,-113 64,-113 64,-75 230,-75 230,-113"/>
<text text-anchor="middle" x="147" y="-97.8" font-family="Times,serif" font-size="14.00">Videos einfügen</text>
<text text-anchor="middle" x="147" y="-82.8" font-family="Times,serif" font-size="14.00">(YouTube API, Retry)</text>
</g>
<!-- playlist&#45;&gt;insert -->
<g id="edge8" class="edge">
<title>playlist&#45;&gt;insert</title>
<path fill="none" stroke="black" d="M129.69,-149.96C132.26,-141.8 135.35,-131.97 138.21,-122.89"/>
<polygon fill="black" stroke="black" points="141.63,-123.68 141.3,-113.09 134.96,-121.58 141.63,-123.68"/>
</g>
<!-- save -->
<g id="node9" class="node">
<title>save</title>
<polygon fill="none" stroke="black" points="290,-38 122,-38 122,0 290,0 290,-38"/>
<text text-anchor="middle" x="206" y="-22.8" font-family="Times,serif" font-size="14.00">Fortschritt speichern</text>
<text text-anchor="middle" x="206" y="-7.8" font-family="Times,serif" font-size="14.00">(progress.json)</text>
</g>
<!-- insert&#45;&gt;save -->
<g id="edge9" class="edge">
<title>insert&#45;&gt;save</title>
<path fill="none" stroke="black" d="M161.58,-74.96C168.6,-66.27 177.15,-55.69 184.87,-46.14"/>
<polygon fill="black" stroke="black" points="187.82,-48.07 191.38,-38.09 182.37,-43.67 187.82,-48.07"/>
</g>
<!-- save&#45;&gt;loop -->
<g id="edge10" class="edge">
<title>save&#45;&gt;loop</title>
<path fill="none" stroke="black" d="M232.39,-38.18C248.1,-51.34 265,-70.68 265,-93 265,-318 265,-318 265,-318 265,-342.33 252.68,-366.03 239.02,-384.83"/>
<polygon fill="black" stroke="black" points="236.2,-382.77 232.91,-392.84 241.76,-387.01 236.2,-382.77"/>
</g>
</g>
</svg>
